<svg width="24" height="24" viewBox="0 0 24 24" fill="none" xmlns="http://www.w3.org/2000/svg">
<g clip-path="url(#clip0)">
<path d="M21.6738 6.64644H15.6602V5.15273H21.6743V6.64644H21.6738ZM11.6569 12.7717C12.0449 13.3727 12.2388 14.1024 12.2388 14.9591C12.2388 15.8451 12.0202 16.6399 11.5754 17.3419C11.2925 17.8065 10.9412 18.1989 10.5191 18.5148C10.0437 18.8802 9.48082 19.1307 8.83378 19.2646C8.18468 19.3987 7.48213 19.4664 6.72534 19.4664H0V4.5332H7.2119C9.02974 4.56278 10.3185 5.08945 11.0795 6.12378C11.5362 6.75815 11.7625 7.51934 11.7625 8.40413C11.7625 9.3171 11.5335 10.0476 11.0723 10.6026C10.8158 10.9138 10.4369 11.1969 9.93529 11.4524C10.6951 11.7305 11.2716 12.1685 11.6569 12.7717ZM3.44397 10.4206H6.60392C7.2533 10.4206 7.77825 10.2972 8.18256 10.0505C8.5866 9.80411 8.78819 9.3662 8.78819 8.73747C8.78819 8.04284 8.52126 7.58178 7.9861 7.35987C7.5261 7.2057 6.93754 7.1263 6.22338 7.1263H3.44397V10.4206ZM9.09246 14.7458C9.09246 13.9701 8.77542 13.4338 8.14261 13.1461C7.78874 12.9825 7.28946 12.8989 6.64929 12.893H3.44397V16.8726H6.59968C7.248 16.8726 7.74979 16.7877 8.11192 16.6107C8.76498 16.2852 9.09246 15.6656 9.09246 14.7458ZM23.9049 12.3164C23.9776 12.805 24.0105 13.5138 23.9971 14.4404H16.2089C16.2519 15.5154 16.623 16.2671 17.3269 16.6973C17.7513 16.9671 18.2659 17.0989 18.8686 17.0989C19.504 17.0989 20.0219 16.9382 20.4206 16.608C20.6378 16.433 20.8294 16.1859 20.9951 15.8741H23.8497C23.7749 16.5091 23.4312 17.153 22.8135 17.8074C21.8565 18.8476 20.5144 19.3691 18.7907 19.3691C17.3667 19.3691 16.1117 18.9293 15.0225 18.0527C13.9368 17.1731 13.3915 15.7466 13.3915 13.7677C13.3915 11.912 13.8811 10.4917 14.8634 9.50307C15.8493 8.5126 17.1217 8.01963 18.6902 8.01963C19.6198 8.01963 20.4579 8.1858 21.2055 8.51986C21.9508 8.85426 22.5667 9.38054 23.0519 10.1039C23.4909 10.7408 23.7732 11.4774 23.9049 12.3164ZM21.0951 12.5951C21.0428 11.8517 20.7946 11.2891 20.3477 10.9046C19.9045 10.519 19.3508 10.3255 18.6902 10.3255C17.9712 10.3255 17.416 10.5324 17.0215 10.939C16.6243 11.3449 16.3772 11.8966 16.2759 12.5951H21.0951V12.5951Z" fill="#1E1E1E"/>
</g>
<defs>
<clipPath id="clip0">
<rect width="24" height="24" fill="white"/>
</clipPath>
</defs>
</svg>
