<svg width="448" height="382" viewBox="0 0 448 382" fill="none" xmlns="http://www.w3.org/2000/svg">
<path d="M12.5625 38.9651H42.7083C49.3143 38.9651 55.3156 39.8928 60.712 41.7484C66.1085 43.6039 70.5743 46.0624 74.1102 49.1239C77.646 52.1855 80.5769 55.8501 82.9027 60.1178C85.322 64.2926 87.0428 68.6994 88.0665 73.3382C89.1831 77.8839 89.7413 82.662 89.7413 87.6718C89.7413 92.3108 89.2298 96.8565 88.2061 101.31C87.2759 105.763 85.6012 110.169 83.1818 114.53C80.856 118.798 77.9251 122.555 74.3893 125.802C70.8534 128.956 66.2946 131.508 60.712 133.456C55.2225 135.404 49.0352 136.379 42.15 136.379H12.5625V38.9651ZM44.5226 120.653C49.4539 120.653 53.7804 119.679 57.5021 117.731C61.3168 115.783 64.2477 113.185 66.2946 109.938C68.4346 106.598 69.97 103.072 70.9002 99.3615C71.9239 95.6507 72.4354 91.7542 72.4354 87.6718C72.4354 78.5797 70.2024 70.8332 65.7363 64.4318C61.2703 57.9376 54.7108 54.6904 46.0578 54.6904H29.3102V120.653H44.5226ZM98.8465 136.379V38.9651H162.488V54.6904H115.594V78.2088H144.484V93.9341H115.594V120.653H165.558V136.379H98.8465ZM204.536 138.049C195.604 138.049 187.881 135.822 181.368 131.369C174.949 126.823 170.389 120.653 167.691 112.86L183.183 107.155C185.23 111.7 188.16 115.365 191.975 118.148C195.79 120.839 200.163 122.184 205.094 122.184C210.211 122.184 214.259 121.024 217.236 118.705C220.307 116.386 221.842 113.046 221.842 108.685C221.842 106.923 221.423 105.299 220.586 103.815C219.749 102.237 218.772 100.939 217.655 99.9181C216.631 98.8974 215.049 97.8773 212.91 96.8565C210.77 95.8358 208.955 95.0474 207.467 94.4908C205.978 93.8416 203.792 93.0525 200.907 92.125C197.185 90.8259 194.301 89.8059 192.254 89.0635C190.301 88.321 187.742 87.1152 184.578 85.4453C181.508 83.6828 179.135 81.9196 177.461 80.1571C175.879 78.3946 174.436 76.0748 173.134 73.199C171.924 70.23 171.32 66.9831 171.32 63.4576C171.32 56.0356 174.204 49.8198 179.973 44.8099C185.741 39.8001 193.557 37.2952 203.42 37.2952C211.607 37.2952 218.399 39.2434 223.796 43.14C229.192 46.9438 232.821 51.9536 234.682 58.1695L219.609 63.1793C216.631 56.4995 210.863 53.1596 202.303 53.1596C197.93 53.1596 194.487 54.0874 191.975 55.9429C189.556 57.7056 188.347 60.2569 188.347 63.5968C188.347 65.8234 189.277 67.8181 191.138 69.5808C193.092 71.3433 195.139 72.689 197.279 73.6165C199.512 74.4514 202.768 75.5647 207.048 76.9564C209.839 77.9771 211.933 78.7655 213.329 79.3221C214.817 79.7862 216.864 80.6212 219.469 81.827C222.074 83.0329 224.121 84.1462 225.61 85.1669C227.099 86.0944 228.773 87.3935 230.635 89.0635C232.588 90.7334 234.077 92.4959 235.101 94.3516C236.124 96.1141 237.008 98.2482 237.752 100.753C238.496 103.165 238.869 105.81 238.869 108.685C238.869 117.777 235.612 124.967 229.099 130.255C222.679 135.451 214.491 138.049 204.536 138.049ZM247.989 136.379V38.9651H264.737V136.379H247.989ZM317.325 138.049C310.068 138.049 303.601 136.657 297.926 133.874C292.343 130.998 287.877 127.147 284.528 122.323C281.178 117.499 278.666 112.164 276.991 106.32C275.317 100.475 274.479 94.2591 274.479 87.6718C274.479 82.8478 274.991 78.0697 276.014 73.3382C277.131 68.6066 278.852 64.0607 281.178 59.7003C283.504 55.3398 286.295 51.5361 289.552 48.289C292.809 44.9491 296.809 42.305 301.555 40.3567C306.393 38.3157 311.65 37.2952 317.325 37.2952C325.885 37.2952 332.77 39.0579 337.981 42.5833C343.191 46.016 347.703 50.7939 351.518 56.917L336.585 65.4059C331.189 57.4273 324.769 53.438 317.325 53.438C312.673 53.438 308.58 54.5049 305.044 56.6387C301.601 58.6797 298.95 61.463 297.089 64.9884C295.227 68.4211 293.879 72.0391 293.041 75.8431C292.204 79.6471 291.785 83.5895 291.785 87.6718C291.785 97.3206 293.925 105.438 298.205 112.025C302.485 118.612 308.859 121.906 317.325 121.906C322.722 121.906 327.188 120.143 330.723 116.618C334.352 113.092 336.166 108.778 336.166 103.675V102.145H319V86.4194H353.193V99.9181C353.193 111.886 349.844 121.257 343.145 128.029C336.446 134.709 327.839 138.049 317.325 138.049ZM437.858 136.379H422.646L382.172 74.8689C380.869 72.9207 379.521 70.5083 378.125 67.6325C378.404 69.8591 378.544 72.2715 378.544 74.8689V136.379H361.935V38.9651H378.125L417.621 99.5006C418.552 100.892 419.901 103.351 421.669 106.876C421.39 104.371 421.25 101.913 421.25 99.5006V38.9651H437.858V136.379Z" fill="#1E1E1E"/>
<path d="M436.14 157.253H405.994C399.388 157.253 393.386 158.18 387.99 160.036C382.594 161.892 378.128 164.35 374.592 167.412C371.056 170.473 368.125 174.138 365.799 178.406C363.38 182.58 361.659 186.987 360.635 191.626C359.519 196.172 358.961 200.95 358.961 205.96C358.961 210.599 359.472 215.144 360.496 219.598C361.426 224.051 363.101 228.457 365.52 232.818C367.846 237.085 370.777 240.843 374.313 244.09C377.849 247.244 382.407 249.796 387.99 251.744C393.48 253.692 399.667 254.666 406.552 254.666H436.14V157.253ZM404.179 238.941C399.248 238.941 394.921 237.967 391.2 236.019C387.385 234.07 384.454 231.473 382.407 228.226C380.267 224.886 378.732 221.36 377.802 217.649C376.778 213.939 376.267 210.042 376.267 205.96C376.267 196.868 378.5 189.121 382.966 182.72C387.432 176.226 393.991 172.978 402.644 172.978H419.392V238.941H404.179ZM349.856 254.666V157.253H286.214V172.978H333.108V196.497H304.218V212.222H333.108V238.941H283.144V254.666H349.856ZM131.377 256.336C138.634 256.336 145.101 254.945 150.776 252.162C156.359 249.286 160.825 245.435 164.174 240.611C167.524 235.787 170.036 230.452 171.711 224.607C173.385 218.763 174.223 212.547 174.223 205.96C174.223 201.136 173.711 196.358 172.688 191.626C171.571 186.894 169.85 182.349 167.524 177.988C165.198 173.627 162.407 169.824 159.15 166.577C155.893 163.237 151.893 160.593 147.147 158.645C142.309 156.604 137.052 155.583 131.377 155.583C122.817 155.583 115.932 157.345 110.721 160.871C105.511 164.304 100.999 169.082 97.1836 175.205L112.117 183.694C117.513 175.715 123.933 171.726 131.377 171.726C136.029 171.726 140.123 172.792 143.658 174.927C147.101 176.967 149.752 179.751 151.614 183.276C153.475 186.709 154.823 190.327 155.661 194.131C156.498 197.935 156.917 201.877 156.917 205.96C156.917 215.608 154.777 223.726 150.497 230.313C146.217 236.9 139.843 240.194 131.377 240.194C125.981 240.194 121.514 238.431 117.979 234.905C114.35 231.38 112.536 227.066 112.536 221.963V220.433H129.702V204.707H95.5088V218.206C95.5088 230.174 98.8584 239.544 105.557 246.317C112.257 252.996 120.863 256.336 131.377 256.336ZM10.8438 254.666H26.0562L66.5297 193.157C67.8324 191.209 69.1814 188.796 70.5771 185.92C70.298 188.147 70.1585 190.559 70.1585 193.157V254.666H86.7666V157.253H70.5771L31.0805 217.788C30.1501 219.18 28.801 221.638 27.0332 225.164C27.3123 222.659 27.4518 220.201 27.4518 217.788V157.253H10.8438V254.666Z" fill="#F2F2F2"/>
<path d="M244.162 256.336C253.094 256.336 260.817 254.11 267.329 249.657C273.749 245.111 278.309 238.941 281.007 231.148L265.515 225.442C263.468 229.988 260.537 233.653 256.723 236.436C252.908 239.127 248.535 240.472 243.604 240.472C238.486 240.472 234.439 239.312 231.461 236.993C228.391 234.674 226.856 231.334 226.856 226.973C226.856 225.211 227.275 223.587 228.112 222.103C228.949 220.525 229.926 219.227 231.043 218.206C232.066 217.185 233.648 216.165 235.788 215.144C237.928 214.124 239.743 213.335 241.231 212.779C242.72 212.129 244.906 211.34 247.79 210.413C251.513 209.114 254.397 208.094 256.443 207.351C258.397 206.609 260.956 205.403 264.119 203.733C267.19 201.971 269.562 200.207 271.237 198.445C272.819 196.682 274.262 194.363 275.564 191.487C276.774 188.518 277.378 185.271 277.378 181.745C277.378 174.323 274.494 168.108 268.725 163.098C262.957 158.088 255.141 155.583 245.278 155.583C237.091 155.583 230.299 157.531 224.902 161.428C219.506 165.232 215.877 170.242 214.016 176.457L229.089 181.467C232.066 174.787 237.835 171.447 246.395 171.447C250.768 171.447 254.21 172.375 256.723 174.231C259.142 175.993 260.351 178.545 260.351 181.885C260.351 184.111 259.421 186.106 257.56 187.869C255.606 189.631 253.559 190.977 251.419 191.904C249.186 192.739 245.93 193.853 241.65 195.244C238.858 196.265 236.765 197.053 235.369 197.61C233.881 198.074 231.834 198.909 229.228 200.115C226.623 201.321 224.577 202.434 223.088 203.455C221.599 204.382 219.924 205.681 218.063 207.351C216.109 209.021 214.621 210.784 213.597 212.639C212.574 214.402 211.69 216.536 210.946 219.041C210.202 221.453 209.829 224.097 209.829 226.973C209.829 236.065 213.086 243.255 219.599 248.543C226.018 253.739 234.207 256.336 244.162 256.336ZM200.709 254.666V157.253H183.961V254.666H200.709Z" fill="#1C1C1C"/>
<path d="M11.8594 275.541H42.0052C48.6112 275.541 54.6125 276.469 60.0089 278.324C65.4054 280.18 69.8712 282.638 73.407 285.7C76.9429 288.761 79.8737 292.426 82.1996 296.694C84.6189 300.869 86.3397 305.275 87.3634 309.914C88.4799 314.46 89.0382 319.238 89.0382 324.248C89.0382 328.887 88.5267 333.432 87.503 337.886C86.5728 342.339 84.898 346.745 82.4787 351.106C80.1529 355.373 77.222 359.131 73.6862 362.378C70.1503 365.532 65.5915 368.084 60.0089 370.032C54.5194 371.98 48.3321 372.954 41.4469 372.954H11.8594V275.541ZM43.8195 357.229C48.7508 357.229 53.0773 356.255 56.7989 354.307C60.6137 352.359 63.5446 349.761 65.5915 346.514C67.7315 343.174 69.2667 339.648 70.1971 335.937C71.2208 332.227 71.7323 328.33 71.7323 324.248C71.7323 315.156 69.4993 307.409 65.0332 301.008C60.5672 294.514 54.0077 291.266 45.3547 291.266H28.607V357.229H43.8195ZM98.1433 372.954V275.541H161.784V291.266H114.891V314.785H143.781V330.51H114.891V357.229H164.855V372.954H98.1433ZM203.833 374.624C194.901 374.624 187.178 372.398 180.665 367.945C174.245 363.399 169.686 357.229 166.988 349.436L182.48 343.73C184.526 348.276 187.457 351.941 191.272 354.724C195.087 357.415 199.46 358.76 204.391 358.76C209.508 358.76 213.556 357.6 216.533 355.281C219.604 352.962 221.139 349.622 221.139 345.261C221.139 343.499 220.72 341.875 219.883 340.391C219.045 338.813 218.068 337.515 216.952 336.494C215.928 335.473 214.346 334.453 212.207 333.432C210.067 332.412 208.252 331.623 206.764 331.067C205.275 330.418 203.088 329.628 200.204 328.701C196.482 327.402 193.598 326.382 191.551 325.639C189.597 324.897 187.039 323.691 183.875 322.021C180.805 320.259 178.432 318.496 176.758 316.733C175.176 314.971 173.733 312.651 172.431 309.775C171.221 306.806 170.617 303.559 170.617 300.034C170.617 292.611 173.501 286.396 179.27 281.386C185.038 276.376 192.854 273.871 202.716 273.871C210.904 273.871 217.696 275.819 223.093 279.716C228.489 283.52 232.118 288.53 233.979 294.745L218.906 299.755C215.928 293.075 210.159 289.736 201.6 289.736C197.227 289.736 193.784 290.663 191.272 292.519C188.853 294.281 187.644 296.833 187.644 300.173C187.644 302.399 188.574 304.394 190.435 306.157C192.389 307.919 194.435 309.265 196.576 310.192C198.809 311.027 202.065 312.141 206.345 313.532C209.136 314.553 211.23 315.341 212.626 315.898C214.114 316.362 216.161 317.197 218.766 318.403C221.371 319.609 223.418 320.722 224.907 321.743C226.396 322.67 228.07 323.969 229.931 325.639C231.885 327.309 233.374 329.072 234.397 330.928C235.42 332.69 236.305 334.824 237.049 337.329C237.793 339.741 238.166 342.385 238.166 345.261C238.166 354.353 234.909 361.543 228.396 366.831C221.976 372.027 213.788 374.624 203.833 374.624ZM316.622 374.624C309.365 374.624 302.898 373.233 297.223 370.45C291.64 367.574 287.174 363.723 283.825 358.899C280.475 354.075 277.963 348.74 276.288 342.895C274.613 337.051 273.776 330.835 273.776 324.248C273.776 319.424 274.288 314.646 275.311 309.914C276.428 305.183 278.149 300.637 280.475 296.276C282.801 291.916 285.592 288.112 288.849 284.865C292.106 281.525 296.106 278.881 300.852 276.933C305.689 274.892 310.947 273.871 316.622 273.871C325.182 273.871 332.067 275.634 337.278 279.159C342.488 282.592 347 287.37 350.815 293.493L335.882 301.982C330.486 294.003 324.066 290.014 316.622 290.014C311.97 290.014 307.876 291.081 304.341 293.215C300.898 295.255 298.247 298.039 296.385 301.564C294.524 304.997 293.176 308.615 292.338 312.419C291.501 316.223 291.082 320.165 291.082 324.248C291.082 333.897 293.222 342.014 297.502 348.601C301.782 355.188 308.156 358.482 316.622 358.482C322.018 358.482 326.485 356.719 330.02 353.193C333.649 349.668 335.463 345.354 335.463 340.251V338.721H318.297V322.995H352.49V336.494C352.49 348.462 349.141 357.832 342.442 364.605C335.742 371.285 327.136 374.624 316.622 374.624Z" fill="#F2F2F2"/>
<path d="M247.289 372.954V275.541H264.037V372.954H247.289ZM437.158 372.954H421.946L381.472 311.445C380.169 309.497 378.82 307.084 377.425 304.208C377.704 306.435 377.843 308.847 377.843 311.445V372.954H361.235V275.541H377.425L416.921 336.077C417.851 337.468 419.201 339.926 420.969 343.452C420.69 340.947 420.55 338.489 420.55 336.077V275.541H437.158V372.954Z" fill="#1C1C1C"/>
</svg>
