<svg width="24" height="24" viewBox="0 0 24 24" fill="none" xmlns="http://www.w3.org/2000/svg">
<path d="M17.0749 1H7.82063C4.05969 1 1 4.05969 1 7.82063V17.0749C1 20.8357 4.05969 23.8956 7.8207 23.8956H17.075C20.8358 23.8956 23.8957 20.8359 23.8957 17.0749V7.82063C23.8956 4.05969 20.8359 1 17.0749 1ZM21.5923 17.075C21.5923 19.5698 19.5698 21.5923 17.075 21.5923H7.8207C5.32586 21.5923 3.30336 19.5698 3.30336 17.075V7.8207C3.30336 5.32586 5.32586 3.30328 7.8207 3.30328H17.075C19.5698 3.30328 21.5923 5.32594 21.5923 7.8207V17.075Z" fill="#1E1E1E"/>
<path d="M12.4491 6.52637C9.18391 6.52637 6.52734 9.18293 6.52734 12.4481C6.52734 15.713 9.18391 18.3696 12.4491 18.3696C15.7142 18.3696 18.3705 15.7132 18.3705 12.4481C18.3705 9.18293 15.7142 6.52637 12.4491 6.52637ZM12.4491 16.0663C10.4507 16.0663 8.83063 14.4465 8.83063 12.4481C8.83063 10.4496 10.4507 8.82965 12.4491 8.82965C14.4474 8.82965 16.0673 10.4496 16.0673 12.4481C16.0673 14.4464 14.4474 16.0663 12.4491 16.0663Z" fill="#1E1E1E"/>
</svg>
