<svg width="56" height="56" viewBox="0 0 56 56" fill="none" xmlns="http://www.w3.org/2000/svg">
<path d="M51.758 14.4243C54.1011 14.4243 56.0005 12.5249 56.0005 10.1819C56.0005 7.83885 54.1011 5.93945 51.758 5.93945C49.415 5.93945 47.5156 7.83885 47.5156 10.1819C47.5156 12.5249 49.415 14.4243 51.758 14.4243Z" fill="#C4C4C4"/>
<path d="M43.838 25.1516L37.9181 26.7801L7.81249 35.0767C8.80281 37.0354 10.1892 38.7739 11.8838 40.1604C14.6347 42.4491 18.1778 43.8135 22.029 43.8135C28.9392 43.8135 34.8371 39.3901 37.0378 33.2282L43.75 31.3796C42.0994 41.8989 32.9885 49.9535 22.007 49.9535C15.2069 49.9535 9.13291 46.8725 5.08362 42.031C3.7632 40.4465 2.64084 38.6639 1.80458 36.7273C1.01232 34.9227 0.462147 33.0081 0.198063 30.9834L6.16197 29.3329L36.3776 21.0143C35.9155 20.046 35.3433 19.1217 34.7051 18.2634C31.8001 14.4342 27.2007 11.9694 22.007 11.9694C13.8204 11.9694 7.06425 18.1533 6.18397 26.1199L0 27.8364C0.0660211 15.7326 9.90316 5.93945 22.007 5.93945C29.9956 5.93945 36.9938 10.2088 40.845 16.5688C41.3952 17.4711 41.8794 18.3954 42.2755 19.3857C43.0457 21.1903 43.5739 23.1269 43.838 25.1516Z" fill="#C4C4C4"/>
</svg>
