<svg width="24" height="24" viewBox="0 0 24 24" fill="none" xmlns="http://www.w3.org/2000/svg">
<path d="M21.426 3.07551C22.2233 2.76441 23.0475 3.46207 22.8724 4.29973L19.2967 21.392C19.1296 22.1933 18.1882 22.5543 17.5283 22.0694L12.1303 18.1071L9.37886 20.9166C8.89534 21.4096 8.06167 21.2089 7.85425 20.5516L5.86909 14.2499L0.547842 12.6782C-0.151142 12.4721 -0.191533 11.4997 0.485889 11.2344L21.426 3.07551ZM18.801 6.86808C19.034 6.66199 18.7633 6.2984 18.4993 6.46269L7.01378 13.5859C6.81175 13.7111 6.71886 13.9576 6.79019 14.1852L8.35651 21.0633C8.38753 21.1684 8.53831 21.1536 8.55183 21.0445L8.90198 15.8028C8.91542 15.6735 8.97737 15.555 9.0744 15.4688L18.801 6.86808Z" fill="#1E1E1E"/>
<path d="M18.5024 6.46282C18.7664 6.29852 19.0371 6.66211 18.8042 6.86821L9.07761 15.4689C8.98066 15.5551 8.91871 15.6736 8.90519 15.8029L8.55503 21.0446C8.5416 21.1537 8.39074 21.1685 8.35972 21.0634L6.7934 14.1853C6.72199 13.9577 6.81496 13.7112 7.01699 13.586L18.5024 6.46282Z" fill="#1E1E1E"/>
<path d="M8.41315 21.1347C8.15995 21.0444 7.94581 20.8424 7.85425 20.5515L5.86909 14.2497L0.547842 12.678C-0.151142 12.4719 -0.191533 11.4996 0.485889 11.2343L21.4259 3.07543C21.9403 2.87473 22.467 3.09426 22.7269 3.50105C22.6784 3.42699 22.6205 3.35832 22.5559 3.29769L8.3498 14.895V15.4027L8.27167 15.3461L8.3498 18.5435V21.1078C8.37003 21.1172 8.39151 21.1253 8.41308 21.132V21.1347H8.41315Z" fill="#1E1E1E"/>
<path d="M9.30453 20.9824C9.28031 21.0027 9.25602 21.0215 9.23047 21.039V21.0377C9.25609 21.0202 9.28031 21.0027 9.30453 20.9824Z" fill="#1E1E1E"/>
<path d="M9.07031 21.1239C9.12555 21.101 9.17805 21.0727 9.22922 21.0391C9.17805 21.0727 9.12414 21.1009 9.07031 21.1239Z" fill="#1E1E1E"/>
<path d="M8.63281 21.1847C8.75133 21.1968 8.87117 21.1873 8.98836 21.1523C8.90352 21.1793 8.81594 21.1914 8.72844 21.1914C8.70148 21.1914 8.67453 21.1901 8.64898 21.1873C8.64359 21.1874 8.6382 21.1874 8.63281 21.1847Z" fill="#1E1E1E"/>
<path d="M8.72789 21.1911C8.70094 21.1911 8.67398 21.1897 8.64844 21.187C8.67398 21.1897 8.70094 21.1911 8.72789 21.1911Z" fill="#1E1E1E"/>
<path d="M8.63492 21.1844C8.64031 21.1871 8.6457 21.187 8.65109 21.187C8.62281 21.1857 8.59719 21.1817 8.57031 21.1763C8.5918 21.1804 8.61336 21.1831 8.63492 21.1844Z" fill="#1E1E1E"/>
<path d="M8.63453 21.1848C8.61297 21.1835 8.59141 21.1808 8.56992 21.1768C8.56047 21.1754 8.55109 21.1741 8.54297 21.1714C8.57258 21.1768 8.60352 21.1822 8.63453 21.1848Z" fill="#1E1E1E"/>
<path d="M8.44141 21.1431C8.47102 21.1525 8.5007 21.1606 8.53031 21.1687C8.5182 21.166 8.50609 21.1633 8.49398 21.1606C8.48859 21.1593 8.4832 21.158 8.47914 21.1553C8.46695 21.1525 8.45352 21.1485 8.44141 21.1431Z" fill="#1E1E1E"/>
<path d="M8.49219 21.1606C8.5043 21.1633 8.51641 21.166 8.52851 21.1687C8.51641 21.1674 8.5043 21.1647 8.49219 21.1606Z" fill="#1E1E1E"/>
<path d="M8.44086 21.1429C8.45297 21.1483 8.46648 21.1524 8.47859 21.1551C8.45836 21.151 8.4382 21.1443 8.41797 21.1362C8.42602 21.1389 8.43273 21.1416 8.44086 21.1429Z" fill="#1E1E1E"/>
<path d="M8.44234 21.143C8.4343 21.1417 8.4275 21.139 8.41945 21.1363C8.41813 21.1376 8.41539 21.1363 8.41406 21.135V21.1323C8.42344 21.1376 8.43289 21.1403 8.44234 21.143Z" fill="#1E1E1E"/>
<path d="M8.34766 18.5435L8.41094 21.132C8.38938 21.1253 8.36781 21.1171 8.34766 21.1078V18.5435Z" fill="#1E1E1E"/>
<path d="M8.34766 15.4028V18.5435L8.26953 15.3462L8.34766 15.4028Z" fill="#1E1E1E"/>
<path d="M18.8003 6.86816L9.07371 15.4689C8.97676 15.555 8.9148 15.6736 8.90129 15.8029L8.55176 21.045C8.53832 21.1541 8.38746 21.169 8.35511 21.0639L6.78949 14.1854C6.71808 13.9578 6.81105 13.7113 7.01308 13.5861L18.4986 6.46284C18.7626 6.29847 19.0333 6.66214 18.8003 6.86816Z" fill="white"/>
</svg>
